<?xml version="1.0" encoding="utf-8"?>
<!-- Svg Vector Icons : http://www.onlinewebfonts.com/icon -->
<!DOCTYPE svg PUBLIC "-//W3C//DTD SVG 1.1//EN" "http://www.w3.org/Graphics/SVG/1.1/DTD/svg11.dtd">
<svg version="1.1" xmlns="http://www.w3.org/2000/svg" xmlns:xlink="http://www.w3.org/1999/xlink" x="0px" y="0px" viewBox="0 0 1000 1000" enable-background="new 0 0 1000 1000" xml:space="preserve">
<metadata> Svg Vector Icons : http://www.onlinewebfonts.com/icon </metadata>
<g><g transform="translate(0.000000,511.000000) scale(0.100000,-0.100000)"><path d="M1841.7,4989.6c-230.5-51.9-315-115.3-749.2-553.2c-219-224.7-449.5-478.3-511-562.8C-254,2692.2-0.5,1316.9,1328.8-187.2C1613.1-508,4634.7-3512.3,4861.3-3700.5c827.9-685.8,1559.8-1027.7,2314.7-1087.2c322.7-25,756.8,51.9,1073.8,190.2c380.3,163.3,632,351.5,1117.9,837.5c405.3,401.5,445.6,459.1,509,710.7c40.4,157.5,26.9,370.7-30.7,522.5c-117.2,313.1-534,745.3-1133.3,1177.5c-616.6,441.8-841.3,545.5-1141,520.6C7350.8-846.1,7224-921,7055-1134.2c-195.9-245.9-389.9-453.3-486-524.4c-207.5-149.8-455.3-211.3-658.9-161.3c-195.9,46.1-295.8,136.4-1421.5,1256.3C3893.2,28,3353.4,575.4,3288.1,652.2c-228.6,263.2-288.1,484.1-203.6,735.7c86.4,259.3,222.8,416.8,651.2,762.6c98,80.7,203.6,184.4,234.4,232.4c130.6,207.5,124.9,522.5-19.2,806.8c-74.9,147.9-391.9,618.5-585.9,868.3c-194,251.6-616.6,678.1-770.3,778C2350.7,4995.4,2093.3,5047.3,1841.7,4989.6z M2268.1,4603.5c299.7-140.2,724.2-601.2,1158.3-1256.3c274.7-413,340-599.3,263.2-743.4c-19.2-34.6-40.3-63.4-48-63.4c-17.3,0-270.8-213.2-489.8-414.9c-194-174.8-307.3-345.8-382.3-564.7l-44.2-134.5l-61.5,132.5c-76.8,169-149.8,409.2-186.3,626.2c-34.6,192.1-46.1,224.8-107.6,267c-86.4,61.5-222.8,17.3-263.2-80.7c-19.2-46.1-17.3-92.2,7.7-236.3c86.4-509,278.5-947,630-1429.2C2852.1,558.1,5164.8-1775.8,5380-1952.5c516.7-426.4,1221.7-739.6,1865.2-829.8c132.5-19.2,161.4-17.3,215.1,9.6c126.8,65.3,121,265.1-9.6,315c-28.8,11.5-136.4,34.6-240.1,49.9c-215.1,36.5-457.2,103.7-670.4,188.3c-134.5,51.8-178.7,92.2-105.6,92.2c15.4,0,96,34.6,182.5,78.8c186.3,92.2,322.7,215.1,578.2,516.7c309.3,366.9,290,347.7,388,359.2c124.9,15.4,245.9-30.7,493.7-186.3c624.3-391.9,1141-829.8,1344.6-1141c151.7-234.3,170.9-399.5,65.3-591.6c-69.2-128.7-735.7-778-956.6-933.5c-1033.4-731.9-2180.2-505.2-3544,697.3c-99.9,88.4-918.2,899-1817.2,1799.9C1459.4,185.5,1307.7,350.7,998.4,821.3c-520.6,791.4-674.2,1554-445.6,2228.2c61.5,182.5,219,470.6,359.2,655c147.9,199.8,789.5,852.9,879.8,899C1947.3,4682.3,2104.8,4682.3,2268.1,4603.5z"/><path d="M4696.1,4617l-55.7-55.7v-340v-340l55.7-55.7c42.3-40.3,74.9-55.7,126.8-55.7s84.5,15.4,126.8,55.7l55.7,55.7v340v340l-55.7,55.7c-42.3,40.3-74.9,55.7-126.8,55.7S4738.4,4657.3,4696.1,4617z"/><path d="M8927.9,4104.1c-109.5-111.4-207.5-224.7-217.1-253.5c-44.2-115.3,44.2-234.4,174.8-234.4c63.4,0,86.4,15.4,226.7,159.4c84.5,86.4,176.7,186.3,205.5,219c113.3,136.4,34.6,313.1-140.2,313.1C9137.2,4307.7,9083.4,4263.5,8927.9,4104.1z"/><path d="M6569,4107.9c-32.7-15.4-71.1-53.8-88.4-90.3c-107.6-224.7-111.4-288.1-25-374.6c57.6-57.6,157.5-61.5,226.7-7.7c63.4,49.9,153.7,276.6,138.3,345.8C6795.7,4092.6,6674.6,4154,6569,4107.9z"/><path d="M4696.1,3522.1l-55.7-55.7v-340v-340l55.7-55.7c42.3-40.3,74.9-55.7,126.8-55.7s84.5,15.4,126.8,55.7l55.7,55.7v340v340l-55.7,55.7c-42.3,40.3-74.9,55.7-126.8,55.7S4738.4,3562.4,4696.1,3522.1z"/><path d="M8428.4,3550.9c-76.8-42.3-464.9-472.5-466.8-516.7c-5.8-90.3,5.8-121,61.5-171c36.5-36.5,76.8-53.8,119.1-53.8c53.8,0,90.3,28.8,295.8,244c146,153.7,240.1,265.1,247.8,299.7c15.4,74.9-25,163.3-90.3,195.9C8530.2,3583.5,8486.1,3583.5,8428.4,3550.9z"/><path d="M6302,3445.2c-67.2-28.8-98-82.6-219-374.6c-128.7-311.2-134.4-355.4-48-436c30.7-28.8,71.1-44.2,111.4-44.2c117.2,0,149.8,40.3,276.6,351.5c151.8,365,151.8,434.1,13.5,493.7C6361.5,3466.4,6355.8,3466.4,6302,3445.2z"/><path d="M7681.2,2759.5c-13.5-5.8-122.9-117.2-244-249.7c-203.6-217.1-222.8-244-222.8-311.2c0-38.4,13.4-90.3,28.8-115.3c38.4-51.9,136.4-80.7,205.5-57.6c49.9,17.3,432.2,411.1,472.5,489.8c38.4,71.1,26.9,140.2-32.7,199.8C7834.9,2769.1,7750.4,2786.4,7681.2,2759.5z"/><path d="M4696.1,2427.2l-55.7-55.7v-340v-340l55.7-55.7c42.3-40.3,74.9-55.7,126.8-55.7s84.5,15.4,126.8,55.7l55.7,55.7v340v340l-55.7,55.7c-42.3,40.3-74.9,55.7-126.8,55.7S4738.4,2467.5,4696.1,2427.2z"/><path d="M5848.7,2415.6c-38.4-21.1-76.8-88.4-161.4-292c-61.5-146-117.2-290-126.8-318.9c-32.7-113.3,57.6-224.7,182.5-224.7c88.3,0,155.6,90.3,268.9,368.8c124.9,303.5,130.6,359.2,51.8,439.9C6000.4,2450.2,5929.3,2459.8,5848.7,2415.6z"/><path d="M9139.2,1937.3c-159.4-78.8-301.6-163.3-318.9-186.3c-36.5-51.9-40.3-167.1-5.8-211.3c32.7-42.3,98-74.9,153.7-74.9c73,0,578.2,257.4,626.2,316.9c55.7,73,51.8,149.8-11.5,219C9488.8,2098.7,9458,2094.8,9139.2,1937.3z"/><path d="M6964.7,1970c-42.3-15.4-99.9-71.1-309.3-297.7c-167.1-182.5-190.2-215.1-190.2-274.7c0-98,84.5-182.5,184.4-182.5c67.2,0,86.4,15.4,274.7,213.2c236.3,247.8,270.8,295.8,270.8,368.8c0,74.9-28.8,122.9-96,157.5C7041.5,1985.3,7012.7,1987.3,6964.7,1970z"/><path d="M8146,1443.6c-147.9-74.9-284.3-155.6-301.6-176.7c-38.4-48-44.2-149.8-13.4-209.4c28.8-55.7,134.5-94.1,201.7-74.9c111.4,32.7,562.8,270.8,591.7,313.1c49.9,69.1,38.4,163.3-25,228.6C8514.9,1608.8,8455.3,1597.3,8146,1443.6z"/><path d="M7179.8,957.7c-159.4-78.8-301.6-163.3-318.9-186.3c-76.8-109.5,9.6-286.2,138.3-286.2c78.8,0,584,251.6,635.8,316.9c44.2,57.6,51.8,144.1,19.2,205.5c-19.2,34.6-122.9,92.2-169.1,92.2C7475.6,1099.8,7339.3,1036.4,7179.8,957.7z"/><path d="M6893.6-79.6c-73-32.7-101.8-82.6-101.8-174.8c0-48,15.4-82.6,48-115.3c46.1-48,49.9-48,401.5-48h353.4l50,59.5c67.2,78.8,65.3,153.7-5.8,232.4l-55.7,63.4l-315,5.8C7030-54.7,6939.7-58.5,6893.6-79.6z"/><path d="M7986.6-81.5c-90.3-40.3-130.6-138.3-92.2-228.6c15.4-36.5,44.2-74.9,65.3-86.4c25-13.4,172.9-21.1,378.4-21.1h340l55.7,55.7c74.9,74.9,74.9,153.7,0,236.3l-55.7,63.4l-315,5.8C8121.1-52.7,8036.6-58.5,7986.6-81.5z"/><path d="M9077.7-87.3c-122.9-61.5-144.1-188.3-48-284.3c44.2-44.2,57.6-46.1,307.3-46.1c257.4,0,261.2,0,307.3,49.9c32.7,34.6,48,74.9,48,117.2c0,151.7-82.6,197.9-359.2,197.9C9192.9-52.7,9127.6-60.4,9077.7-87.3z"/></g></g>
</svg>